<mxfile host="app.diagrams.net" modified="2020-03-13T07:43:47.087Z" agent="Mozilla/5.0 (Windows NT 6.1; Win64; x64) AppleWebKit/537.36 (KHTML, like Gecko) Chrome/72.0.3626.121 Safari/537.36" etag="iUvCZ-t1pug1wmEq1jdn" version="12.8.4" type="github">
  <diagram id="nkiEI172ScTsMpNNtJOc" name="Page-1">
    <mxGraphModel dx="1372" dy="962" grid="1" gridSize="10" guides="1" tooltips="1" connect="1" arrows="1" fold="1" page="1" pageScale="1" pageWidth="827" pageHeight="1169" math="0" shadow="0">
      <root>
        <mxCell id="0" />
        <mxCell id="1" parent="0" />
        <mxCell id="Hc_A0jsRvZjP8Eagb9P3-1" value="" style="rounded=0;whiteSpace=wrap;html=1;fillColor=#dae8fc;strokeColor=#6c8ebf;" vertex="1" parent="1">
          <mxGeometry x="770" y="40" width="690" height="360" as="geometry" />
        </mxCell>
        <mxCell id="Hc_A0jsRvZjP8Eagb9P3-2" value="" style="rounded=0;whiteSpace=wrap;html=1;fillColor=#d5e8d4;strokeColor=#82b366;" vertex="1" parent="1">
          <mxGeometry x="780" y="90" width="650" height="290" as="geometry" />
        </mxCell>
        <mxCell id="Hc_A0jsRvZjP8Eagb9P3-3" value="" style="rounded=0;whiteSpace=wrap;html=1;fillColor=#dae8fc;strokeColor=#6c8ebf;" vertex="1" parent="1">
          <mxGeometry x="460" y="680" width="1000" height="110" as="geometry" />
        </mxCell>
        <mxCell id="Hc_A0jsRvZjP8Eagb9P3-4" value="" style="shape=cylinder;whiteSpace=wrap;html=1;boundedLbl=1;backgroundOutline=1;" vertex="1" parent="1">
          <mxGeometry x="1092.5" y="730" width="25" height="40" as="geometry" />
        </mxCell>
        <mxCell id="Hc_A0jsRvZjP8Eagb9P3-5" value="" style="shape=cylinder;whiteSpace=wrap;html=1;boundedLbl=1;backgroundOutline=1;" vertex="1" parent="1">
          <mxGeometry x="833.75" y="735" width="25" height="40" as="geometry" />
        </mxCell>
        <mxCell id="Hc_A0jsRvZjP8Eagb9P3-6" value="" style="rounded=0;whiteSpace=wrap;html=1;fillColor=#dae8fc;strokeColor=#6c8ebf;" vertex="1" parent="1">
          <mxGeometry x="460" y="410" width="1000" height="250" as="geometry" />
        </mxCell>
        <mxCell id="Hc_A0jsRvZjP8Eagb9P3-7" value="&lt;br&gt;&lt;br&gt;" style="rounded=0;whiteSpace=wrap;html=1;fillColor=#dae8fc;strokeColor=#6c8ebf;" vertex="1" parent="1">
          <mxGeometry x="460" y="110" width="300" height="290" as="geometry" />
        </mxCell>
        <mxCell id="Hc_A0jsRvZjP8Eagb9P3-8" value="&lt;span style=&quot;font-size: 14px&quot;&gt;用户接口&lt;/span&gt;" style="rounded=1;whiteSpace=wrap;html=1;" vertex="1" parent="1">
          <mxGeometry x="815" y="205" width="110" height="60" as="geometry" />
        </mxCell>
        <mxCell id="Hc_A0jsRvZjP8Eagb9P3-9" value="&lt;font style=&quot;font-size: 14px&quot;&gt;邀请活动接口&lt;/font&gt;" style="rounded=1;whiteSpace=wrap;html=1;" vertex="1" parent="1">
          <mxGeometry x="964.5" y="205" width="110" height="60" as="geometry" />
        </mxCell>
        <mxCell id="Hc_A0jsRvZjP8Eagb9P3-10" value="&lt;font style=&quot;font-size: 14px&quot;&gt;好友助力接口&lt;/font&gt;" style="rounded=1;whiteSpace=wrap;html=1;gradientColor=#ffffff;" vertex="1" parent="1">
          <mxGeometry x="480" y="145" width="120" height="60" as="geometry" />
        </mxCell>
        <mxCell id="Hc_A0jsRvZjP8Eagb9P3-11" value="&lt;font style=&quot;font-size: 14px&quot;&gt;助力满抽接口&lt;/font&gt;" style="rounded=1;whiteSpace=wrap;html=1;gradientColor=#ffffff;" vertex="1" parent="1">
          <mxGeometry x="610" y="145" width="120" height="60" as="geometry" />
        </mxCell>
        <mxCell id="Hc_A0jsRvZjP8Eagb9P3-12" value="&lt;font style=&quot;font-size: 14px&quot;&gt;问答活动接口&lt;/font&gt;" style="rounded=1;whiteSpace=wrap;html=1;verticalAlign=middle;flipH=0;flipV=1;" vertex="1" parent="1">
          <mxGeometry x="1121" y="120" width="110" height="60" as="geometry" />
        </mxCell>
        <mxCell id="Hc_A0jsRvZjP8Eagb9P3-13" value="&lt;font style=&quot;font-size: 14px&quot;&gt;公益活动接口&lt;/font&gt;" style="rounded=1;whiteSpace=wrap;html=1;" vertex="1" parent="1">
          <mxGeometry x="480" y="226" width="120" height="60" as="geometry" />
        </mxCell>
        <mxCell id="Hc_A0jsRvZjP8Eagb9P3-14" value="&lt;font style=&quot;font-size: 14px&quot;&gt;插件红包接口&lt;/font&gt;" style="rounded=1;whiteSpace=wrap;html=1;" vertex="1" parent="1">
          <mxGeometry x="1121" y="286" width="110" height="60" as="geometry" />
        </mxCell>
        <mxCell id="Hc_A0jsRvZjP8Eagb9P3-15" value="&lt;font style=&quot;font-size: 14px&quot;&gt;QQ运动红包接口&lt;/font&gt;" style="rounded=1;whiteSpace=wrap;html=1;" vertex="1" parent="1">
          <mxGeometry x="1121" y="205" width="110" height="60" as="geometry" />
        </mxCell>
        <mxCell id="Hc_A0jsRvZjP8Eagb9P3-16" value="&lt;font style=&quot;font-size: 14px&quot;&gt;QQ卡券红包接口&lt;/font&gt;" style="rounded=1;whiteSpace=wrap;html=1;verticalAlign=middle;flipH=0;flipV=1;" vertex="1" parent="1">
          <mxGeometry x="1290" y="120" width="110" height="60" as="geometry" />
        </mxCell>
        <mxCell id="Hc_A0jsRvZjP8Eagb9P3-17" value="&lt;font style=&quot;font-size: 14px&quot;&gt;赌博活动接口&lt;/font&gt;" style="rounded=1;whiteSpace=wrap;html=1;" vertex="1" parent="1">
          <mxGeometry x="480" y="310" width="120" height="60" as="geometry" />
        </mxCell>
        <mxCell id="Hc_A0jsRvZjP8Eagb9P3-18" value="&lt;font style=&quot;font-size: 14px&quot;&gt;签到活动接口&lt;/font&gt;" style="rounded=1;whiteSpace=wrap;html=1;" vertex="1" parent="1">
          <mxGeometry x="610" y="226" width="120" height="60" as="geometry" />
        </mxCell>
        <mxCell id="Hc_A0jsRvZjP8Eagb9P3-19" value="&lt;font style=&quot;font-size: 14px&quot;&gt;。。。&lt;/font&gt;" style="rounded=1;whiteSpace=wrap;html=1;" vertex="1" parent="1">
          <mxGeometry x="610" y="310" width="120" height="60" as="geometry" />
        </mxCell>
        <mxCell id="Hc_A0jsRvZjP8Eagb9P3-20" value="接入层" style="text;html=1;strokeColor=none;fillColor=none;align=center;verticalAlign=middle;whiteSpace=wrap;rounded=0;" vertex="1" parent="1">
          <mxGeometry x="460" y="110" width="40" height="20" as="geometry" />
        </mxCell>
        <mxCell id="Hc_A0jsRvZjP8Eagb9P3-21" value="tars服务" style="text;html=1;strokeColor=none;fillColor=none;align=center;verticalAlign=middle;whiteSpace=wrap;rounded=0;" vertex="1" parent="1">
          <mxGeometry x="1050" y="40" width="60" height="20" as="geometry" />
        </mxCell>
        <mxCell id="Hc_A0jsRvZjP8Eagb9P3-22" value="http接入层服务" style="text;html=1;strokeColor=none;fillColor=none;align=center;verticalAlign=middle;whiteSpace=wrap;rounded=0;" vertex="1" parent="1">
          <mxGeometry x="1059" y="90" width="100" height="20" as="geometry" />
        </mxCell>
        <mxCell id="Hc_A0jsRvZjP8Eagb9P3-23" value="&lt;font style=&quot;font-size: 14px&quot;&gt;红包活动&lt;br&gt;&lt;/font&gt;" style="rounded=1;whiteSpace=wrap;html=1;verticalAlign=middle;flipH=0;flipV=1;" vertex="1" parent="1">
          <mxGeometry x="815" y="120" width="110" height="60" as="geometry" />
        </mxCell>
        <mxCell id="Hc_A0jsRvZjP8Eagb9P3-24" value="&lt;font style=&quot;font-size: 14px&quot;&gt;游戏活动&lt;br&gt;&lt;/font&gt;" style="rounded=1;whiteSpace=wrap;html=1;verticalAlign=middle;flipH=0;flipV=1;" vertex="1" parent="1">
          <mxGeometry x="964.5" y="120" width="110" height="60" as="geometry" />
        </mxCell>
        <mxCell id="Hc_A0jsRvZjP8Eagb9P3-25" value="微信服务" style="rounded=1;whiteSpace=wrap;html=1;" vertex="1" parent="1">
          <mxGeometry x="964.5" y="286" width="110" height="60" as="geometry" />
        </mxCell>
        <mxCell id="Hc_A0jsRvZjP8Eagb9P3-26" value="&lt;span style=&quot;font-size: 14px&quot;&gt;QQ登录&lt;/span&gt;" style="rounded=1;whiteSpace=wrap;html=1;" vertex="1" parent="1">
          <mxGeometry x="480" y="430" width="120" height="60" as="geometry" />
        </mxCell>
        <mxCell id="Hc_A0jsRvZjP8Eagb9P3-27" value="&lt;span style=&quot;font-size: 14px&quot;&gt;微信登录&lt;/span&gt;" style="rounded=1;whiteSpace=wrap;html=1;" vertex="1" parent="1">
          <mxGeometry x="620" y="430" width="120" height="60" as="geometry" />
        </mxCell>
        <mxCell id="Hc_A0jsRvZjP8Eagb9P3-28" value="组件" style="text;html=1;strokeColor=none;fillColor=none;align=center;verticalAlign=middle;whiteSpace=wrap;rounded=0;" vertex="1" parent="1">
          <mxGeometry x="460" y="410" width="40" height="20" as="geometry" />
        </mxCell>
        <mxCell id="Hc_A0jsRvZjP8Eagb9P3-29" value="&lt;span style=&quot;font-size: 14px&quot;&gt;名字服务&lt;/span&gt;" style="rounded=1;whiteSpace=wrap;html=1;" vertex="1" parent="1">
          <mxGeometry x="760" y="430" width="120" height="60" as="geometry" />
        </mxCell>
        <mxCell id="Hc_A0jsRvZjP8Eagb9P3-30" value="&lt;span style=&quot;font-size: 14px&quot;&gt;CL5&lt;/span&gt;" style="rounded=1;whiteSpace=wrap;html=1;" vertex="1" parent="1">
          <mxGeometry x="900" y="430" width="120" height="60" as="geometry" />
        </mxCell>
        <mxCell id="Hc_A0jsRvZjP8Eagb9P3-31" value="&lt;span style=&quot;font-size: 14px&quot;&gt;天域防刷&lt;/span&gt;" style="rounded=1;whiteSpace=wrap;html=1;" vertex="1" parent="1">
          <mxGeometry x="1050" y="430" width="120" height="60" as="geometry" />
        </mxCell>
        <mxCell id="Hc_A0jsRvZjP8Eagb9P3-32" value="&lt;span style=&quot;font-size: 14px&quot;&gt;诸葛防刷&lt;/span&gt;" style="rounded=1;whiteSpace=wrap;html=1;" vertex="1" parent="1">
          <mxGeometry x="1195" y="430" width="120" height="60" as="geometry" />
        </mxCell>
        <mxCell id="Hc_A0jsRvZjP8Eagb9P3-33" value="&lt;span style=&quot;font-size: 14px&quot;&gt;日志&lt;/span&gt;" style="rounded=1;whiteSpace=wrap;html=1;" vertex="1" parent="1">
          <mxGeometry x="1330" y="430" width="120" height="60" as="geometry" />
        </mxCell>
        <mxCell id="Hc_A0jsRvZjP8Eagb9P3-34" value="&lt;span style=&quot;font-size: 14px&quot;&gt;QQ红包&lt;/span&gt;" style="rounded=1;whiteSpace=wrap;html=1;" vertex="1" parent="1">
          <mxGeometry x="480" y="510" width="120" height="60" as="geometry" />
        </mxCell>
        <mxCell id="Hc_A0jsRvZjP8Eagb9P3-35" value="&lt;span style=&quot;font-size: 14px&quot;&gt;微信红包&lt;/span&gt;" style="rounded=1;whiteSpace=wrap;html=1;" vertex="1" parent="1">
          <mxGeometry x="620" y="510" width="120" height="60" as="geometry" />
        </mxCell>
        <mxCell id="Hc_A0jsRvZjP8Eagb9P3-36" value="&lt;span style=&quot;font-size: 14px&quot;&gt;QQ卡券&lt;/span&gt;" style="rounded=1;whiteSpace=wrap;html=1;" vertex="1" parent="1">
          <mxGeometry x="760" y="510" width="120" height="60" as="geometry" />
        </mxCell>
        <mxCell id="Hc_A0jsRvZjP8Eagb9P3-37" value="&lt;span style=&quot;font-size: 14px&quot;&gt;BOSS上报&lt;/span&gt;" style="rounded=1;whiteSpace=wrap;html=1;" vertex="1" parent="1">
          <mxGeometry x="900" y="510" width="120" height="60" as="geometry" />
        </mxCell>
        <mxCell id="Hc_A0jsRvZjP8Eagb9P3-38" value="&lt;span style=&quot;font-size: 14px&quot;&gt;图片校验&lt;/span&gt;" style="rounded=1;whiteSpace=wrap;html=1;" vertex="1" parent="1">
          <mxGeometry x="1050" y="510" width="120" height="60" as="geometry" />
        </mxCell>
        <mxCell id="Hc_A0jsRvZjP8Eagb9P3-39" value="&lt;span style=&quot;font-size: 14px&quot;&gt;模调监控&lt;/span&gt;" style="rounded=1;whiteSpace=wrap;html=1;" vertex="1" parent="1">
          <mxGeometry x="1195" y="510" width="120" height="60" as="geometry" />
        </mxCell>
        <mxCell id="Hc_A0jsRvZjP8Eagb9P3-40" value="&lt;span style=&quot;font-size: 14px&quot;&gt;流量雷锋奖品&lt;/span&gt;" style="rounded=1;whiteSpace=wrap;html=1;" vertex="1" parent="1">
          <mxGeometry x="1330" y="510" width="120" height="60" as="geometry" />
        </mxCell>
        <mxCell id="Hc_A0jsRvZjP8Eagb9P3-41" value="&lt;span style=&quot;font-size: 14px&quot;&gt;金币&lt;/span&gt;" style="rounded=1;whiteSpace=wrap;html=1;" vertex="1" parent="1">
          <mxGeometry x="480" y="590" width="120" height="60" as="geometry" />
        </mxCell>
        <mxCell id="Hc_A0jsRvZjP8Eagb9P3-42" value="&lt;span style=&quot;font-size: 14px&quot;&gt;mp直冲平台&lt;/span&gt;" style="rounded=1;whiteSpace=wrap;html=1;" vertex="1" parent="1">
          <mxGeometry x="620" y="590" width="120" height="60" as="geometry" />
        </mxCell>
        <mxCell id="Hc_A0jsRvZjP8Eagb9P3-43" value="&lt;span style=&quot;font-size: 14px&quot;&gt;微信报警&lt;/span&gt;" style="rounded=1;whiteSpace=wrap;html=1;" vertex="1" parent="1">
          <mxGeometry x="760" y="590" width="120" height="60" as="geometry" />
        </mxCell>
        <mxCell id="Hc_A0jsRvZjP8Eagb9P3-44" value="&lt;span style=&quot;font-size: 14px&quot;&gt;兑吧服务&lt;/span&gt;" style="rounded=1;whiteSpace=wrap;html=1;" vertex="1" parent="1">
          <mxGeometry x="900" y="590" width="120" height="60" as="geometry" />
        </mxCell>
        <mxCell id="Hc_A0jsRvZjP8Eagb9P3-45" value="&lt;span style=&quot;font-size: 14px&quot;&gt;Redis&lt;/span&gt;" style="rounded=1;whiteSpace=wrap;html=1;" vertex="1" parent="1">
          <mxGeometry x="1050" y="590" width="120" height="60" as="geometry" />
        </mxCell>
        <mxCell id="Hc_A0jsRvZjP8Eagb9P3-46" value="&lt;span style=&quot;font-size: 14px&quot;&gt;MySQL&lt;/span&gt;" style="rounded=1;whiteSpace=wrap;html=1;" vertex="1" parent="1">
          <mxGeometry x="1195" y="590" width="120" height="60" as="geometry" />
        </mxCell>
        <mxCell id="Hc_A0jsRvZjP8Eagb9P3-47" value="&lt;span style=&quot;font-size: 14px&quot;&gt;。。。&lt;/span&gt;" style="rounded=1;whiteSpace=wrap;html=1;" vertex="1" parent="1">
          <mxGeometry x="1329" y="590" width="120" height="60" as="geometry" />
        </mxCell>
        <mxCell id="Hc_A0jsRvZjP8Eagb9P3-48" value="存储层" style="text;html=1;strokeColor=none;fillColor=none;align=center;verticalAlign=middle;whiteSpace=wrap;rounded=0;" vertex="1" parent="1">
          <mxGeometry x="460" y="680" width="40" height="20" as="geometry" />
        </mxCell>
        <mxCell id="Hc_A0jsRvZjP8Eagb9P3-49" value="&lt;font style=&quot;font-size: 14px&quot;&gt;Redis&lt;/font&gt;" style="shape=cylinder;whiteSpace=wrap;html=1;boundedLbl=1;backgroundOutline=1;" vertex="1" parent="1">
          <mxGeometry x="781.25" y="695" width="60" height="80" as="geometry" />
        </mxCell>
        <mxCell id="Hc_A0jsRvZjP8Eagb9P3-50" value="&lt;font style=&quot;font-size: 14px&quot;&gt;MySQL&lt;br&gt;(MDB)&lt;br&gt;&lt;/font&gt;" style="shape=cylinder;whiteSpace=wrap;html=1;boundedLbl=1;backgroundOutline=1;" vertex="1" parent="1">
          <mxGeometry x="1042.5" y="690" width="60" height="80" as="geometry" />
        </mxCell>
        <mxCell id="Hc_A0jsRvZjP8Eagb9P3-51" value="" style="rounded=0;whiteSpace=wrap;html=1;fillColor=#dae8fc;strokeColor=#6c8ebf;" vertex="1" parent="1">
          <mxGeometry x="460" y="810" width="1000" height="100" as="geometry" />
        </mxCell>
        <mxCell id="Hc_A0jsRvZjP8Eagb9P3-52" value="服务器" style="text;html=1;strokeColor=none;fillColor=none;align=center;verticalAlign=middle;whiteSpace=wrap;rounded=0;" vertex="1" parent="1">
          <mxGeometry x="460" y="810" width="40" height="20" as="geometry" />
        </mxCell>
        <mxCell id="Hc_A0jsRvZjP8Eagb9P3-53" value="&lt;span style=&quot;color: rgb(68 , 68 , 68) ; text-align: left ; background-color: rgb(255 , 255 , 255)&quot;&gt;&lt;font style=&quot;font-size: 14px&quot;&gt;sumeru&lt;/font&gt;&lt;/span&gt;" style="rounded=1;whiteSpace=wrap;html=1;" vertex="1" parent="1">
          <mxGeometry x="760" y="830" width="120" height="60" as="geometry" />
        </mxCell>
        <mxCell id="Hc_A0jsRvZjP8Eagb9P3-54" value="&lt;span style=&quot;color: rgb(68 , 68 , 68) ; text-align: left ; background-color: rgb(255 , 255 , 255)&quot;&gt;&lt;font style=&quot;font-size: 14px&quot;&gt;TAF&lt;/font&gt;&lt;/span&gt;" style="rounded=1;whiteSpace=wrap;html=1;" vertex="1" parent="1">
          <mxGeometry x="1020" y="830" width="120" height="60" as="geometry" />
        </mxCell>
        <mxCell id="Hc_A0jsRvZjP8Eagb9P3-55" value="" style="rounded=0;whiteSpace=wrap;html=1;fillColor=#dae8fc;strokeColor=#6c8ebf;" vertex="1" parent="1">
          <mxGeometry x="460" y="40" width="300" height="60" as="geometry" />
        </mxCell>
        <mxCell id="Hc_A0jsRvZjP8Eagb9P3-56" value="代理层" style="text;html=1;strokeColor=none;fillColor=none;align=center;verticalAlign=middle;whiteSpace=wrap;rounded=0;" vertex="1" parent="1">
          <mxGeometry x="460" y="40" width="40" height="20" as="geometry" />
        </mxCell>
        <mxCell id="Hc_A0jsRvZjP8Eagb9P3-57" value="&lt;font style=&quot;font-size: 14px&quot;&gt;Nginx代理&lt;/font&gt;" style="rounded=1;whiteSpace=wrap;html=1;" vertex="1" parent="1">
          <mxGeometry x="505" y="45" width="225" height="50" as="geometry" />
        </mxCell>
        <mxCell id="Hc_A0jsRvZjP8Eagb9P3-58" value="&lt;font style=&quot;font-size: 14px&quot;&gt;红包活动&lt;br&gt;&lt;/font&gt;" style="rounded=1;whiteSpace=wrap;html=1;" vertex="1" parent="1">
          <mxGeometry x="815" y="286" width="110" height="60" as="geometry" />
        </mxCell>
        <mxCell id="Hc_A0jsRvZjP8Eagb9P3-59" value="&lt;span style=&quot;font-size: 14px&quot;&gt;集卡活动接口&lt;/span&gt;" style="rounded=1;whiteSpace=wrap;html=1;" vertex="1" parent="1">
          <mxGeometry x="1290" y="205" width="110" height="60" as="geometry" />
        </mxCell>
        <mxCell id="Hc_A0jsRvZjP8Eagb9P3-60" value="&lt;span style=&quot;font-size: 14px&quot;&gt;。。。&lt;/span&gt;" style="rounded=1;whiteSpace=wrap;html=1;" vertex="1" parent="1">
          <mxGeometry x="1290" y="286" width="110" height="60" as="geometry" />
        </mxCell>
      </root>
    </mxGraphModel>
  </diagram>
</mxfile>
